<svg width="966" height="376" viewBox="0 0 966 376" fill="none" xmlns="http://www.w3.org/2000/svg">
<path d="M542.836 187.676C550.386 190.501 555.687 193.922 558.738 197.94C563.12 203.653 565.311 211.061 565.311 220.163C565.311 229.769 562.905 237.71 558.093 243.988C552.186 251.584 543.599 255.382 532.332 255.382H491.9V251.898C495.578 251.898 498.062 251.364 499.353 250.297C500.683 249.167 501.602 247.723 502.111 245.965C502.659 244.207 502.932 239.876 502.932 232.97V150.103C502.932 143.198 502.659 138.866 502.111 137.108C501.602 135.288 500.683 133.844 499.353 132.776C498.023 131.709 495.539 131.176 491.9 131.176V127.691H530.043C539.158 127.691 545.613 129.01 549.408 131.646C553.203 134.22 556.196 138.113 558.386 143.323C560.577 148.471 561.673 153.964 561.673 159.802C561.673 165.955 560.284 171.448 557.506 176.282C554.729 181.053 549.838 184.851 542.836 187.676ZM521.476 185.133C527.031 185.133 531.119 184.129 533.74 182.12C536.4 180.111 538.435 177.286 539.843 173.645C541.251 170.004 541.956 165.358 541.956 159.708C541.956 154.058 541.251 149.444 539.843 145.866C538.474 142.225 536.498 139.462 533.916 137.579C531.334 135.696 527.187 134.785 521.476 134.848V185.133ZM521.476 192.478V233.441L521.417 238.149C521.417 241.539 521.945 244.113 523.002 245.871C524.097 247.566 525.701 248.414 527.813 248.414C530.943 248.414 533.818 247.315 536.44 245.118C539.1 242.858 541.134 239.625 542.542 235.419C543.951 231.15 544.655 226.41 544.655 221.199C544.655 215.235 543.794 209.899 542.073 205.191C540.352 200.42 537.985 197.093 534.973 195.209C531.96 193.326 527.461 192.416 521.476 192.478Z" fill="white"/>
<path d="M599.876 135.036V187.017H601.461C606.507 187.017 610.165 184.474 612.434 179.389C614.703 174.304 616.151 166.802 616.777 156.883H619.007V223.742H616.777C616.307 216.46 615.31 210.496 613.784 205.85C612.297 201.204 610.556 198.097 608.561 196.528C606.566 194.895 603.671 194.079 599.876 194.079V230.051C599.876 237.082 600.053 241.382 600.405 242.952C600.796 244.521 601.5 245.808 602.517 246.813C603.534 247.817 605.177 248.319 607.446 248.319H612.2C619.633 248.319 625.579 245.557 630.039 240.033C634.538 234.508 637.765 226.096 639.721 214.796H641.892L638.313 255.382H569.538V251.898H572.179C574.487 251.898 576.345 251.239 577.754 249.92C578.771 249.041 579.553 247.535 580.101 245.4C580.531 243.894 580.746 239.939 580.746 233.535V149.538C580.746 143.763 580.649 140.216 580.453 138.897C580.062 136.7 579.338 135.005 578.282 133.812C576.795 132.054 574.761 131.176 572.179 131.176H569.538V127.691H636.142V165.452H633.912C632.777 156.224 631.173 149.601 629.1 145.583C627.066 141.565 624.171 138.615 620.415 136.731C618.224 135.601 614.116 135.036 608.092 135.036H599.876Z" fill="white"/>
<path d="M720.704 127.691V162.251H718.591C717.339 154.278 715.951 148.565 714.425 145.112C712.899 141.597 710.806 138.803 708.146 136.731C706.659 135.601 704.058 135.036 700.341 135.036H694.415V233.535C694.415 240.064 694.63 244.145 695.06 245.777C695.529 247.409 696.41 248.853 697.701 250.109C699.031 251.301 700.83 251.898 703.099 251.898H705.74V255.382H664.076V251.898H666.717C669.025 251.898 670.883 251.239 672.292 249.92C673.309 249.041 674.111 247.535 674.698 245.4C675.128 243.894 675.343 239.939 675.343 233.535V135.036H669.592C664.233 135.036 660.34 136.857 657.915 140.498C654.511 145.583 652.36 152.834 651.46 162.251H649.23V127.691H720.704Z" fill="white"/>
<path d="M798.459 127.691V162.251H796.346C795.095 154.278 793.706 148.565 792.18 145.112C790.654 141.597 788.561 138.803 785.901 136.731C784.415 135.601 781.813 135.036 778.096 135.036H772.17V233.535C772.17 240.064 772.385 244.145 772.815 245.777C773.285 247.409 774.165 248.853 775.456 250.109C776.786 251.301 778.586 251.898 780.855 251.898H783.495V255.382H741.831V251.898H744.472C746.78 251.898 748.638 251.239 750.047 249.92C751.064 249.041 751.866 247.535 752.453 245.4C752.883 243.894 753.098 239.939 753.098 233.535V135.036H747.347C741.988 135.036 738.095 136.857 735.67 140.498C732.266 145.583 730.115 152.834 729.215 162.251H726.985V127.691H798.459Z" fill="white"/>
<path d="M833.142 135.036V187.017H834.726C839.773 187.017 843.431 184.474 845.7 179.389C847.969 174.304 849.416 166.802 850.042 156.883H852.272V223.742H850.042C849.573 216.46 848.575 210.496 847.049 205.85C845.563 201.204 843.822 198.097 841.827 196.528C839.832 194.895 836.937 194.079 833.142 194.079V230.051C833.142 237.082 833.318 241.382 833.67 242.952C834.061 244.521 834.766 245.808 835.783 246.813C836.8 247.817 838.443 248.319 840.712 248.319H845.465C852.898 248.319 858.844 245.557 863.304 240.033C867.803 234.508 871.031 226.096 872.987 214.796H875.158L871.578 255.382H802.804V251.898H805.444C807.753 251.898 809.611 251.239 811.019 249.92C812.036 249.041 812.819 247.535 813.366 245.4C813.797 243.894 814.012 239.939 814.012 233.535V149.538C814.012 143.763 813.914 140.216 813.718 138.897C813.327 136.7 812.603 135.005 811.547 133.812C810.061 132.054 808.026 131.176 805.444 131.176H802.804V127.691H869.407V165.452H867.177C866.043 156.224 864.439 149.601 862.365 145.583C860.331 141.565 857.436 138.615 853.68 136.731C851.49 135.601 847.382 135.036 841.357 135.036H833.142Z" fill="white"/>
<path d="M910.076 197.187V232.97C910.076 239.876 910.33 244.239 910.839 246.059C911.386 247.817 912.325 249.23 913.655 250.297C914.985 251.364 917.469 251.898 921.108 251.898V255.382H880.383V251.898C884.06 251.898 886.544 251.364 887.835 250.297C889.165 249.167 890.085 247.723 890.593 245.965C891.141 244.207 891.415 239.876 891.415 232.97V150.103C891.415 143.198 891.141 138.866 890.593 137.108C890.085 135.288 889.165 133.844 887.835 132.776C886.505 131.709 884.021 131.176 880.383 131.176V127.691H917.352C926.976 127.691 934.018 128.759 938.477 130.893C942.937 133.028 946.575 136.983 949.392 142.758C952.209 148.471 953.617 155.188 953.617 162.91C953.617 172.327 951.505 180.111 947.28 186.263C944.58 190.156 940.805 193.075 935.954 195.021L955.084 238.244C957.588 243.831 959.368 247.315 960.424 248.696C962.028 250.642 963.886 251.709 965.999 251.898V255.382H940.942L915.298 197.187H910.076ZM910.076 134.566V190.501H913.42C918.858 190.501 922.927 189.716 925.626 188.147C928.326 186.514 930.438 183.627 931.964 179.483C933.529 175.277 934.311 169.815 934.311 163.098C934.311 153.368 932.883 146.18 930.027 141.534C927.211 136.888 922.653 134.566 916.355 134.566H910.076Z" fill="white"/>
<path d="M343.999 0L272.765 155.846L441.95 183.024L236.528 210.201L99.9667 366.048L171.201 210.201L2.01537 183.024L207.438 155.846L343.999 0Z" fill="white"/>
<path d="M450.483 54L429.991 98.8337L478.662 106.652L419.566 114.471L380.28 159.304L400.773 114.471L352.102 106.652L411.197 98.8337L450.483 54Z" fill="white"/>
<path d="M354.321 43.0586H358.653L356.745 47.2347H350.66L354.321 43.0586Z" fill="white"/>
<path d="M351.974 57.6798H341.512L345.172 53.502H353.882L351.974 57.6798Z" fill="white"/>
<path d="M347.203 68.1192H332.363L336.024 63.9414H349.111L347.203 68.1192Z" fill="white"/>
<path d="M323.215 78.5629L328.706 72.297L330.506 70.2422V74.3851H344.342L342.431 78.5629H323.215Z" fill="white"/>
<path d="M314.066 89.0042L319.556 82.7383H330.507V84.828H339.567L337.659 89.0042H314.066Z" fill="white"/>
<path d="M304.918 99.4478L310.407 93.1836H330.508V95.2717H334.796L332.887 99.4478H304.918Z" fill="white"/>
<path d="M328.11 109.891H295.762L301.253 103.625H330.504V104.652L328.11 109.891Z" fill="white"/>
<path d="M323.337 120.332H286.613L292.103 114.066H326.2L323.337 120.332Z" fill="white"/>
<path d="M318.566 130.774H277.465L282.954 124.508H321.429L318.566 130.774Z" fill="white"/>
<path d="M313.789 141.217H268.311L273.802 134.951H316.652L313.789 141.217Z" fill="white"/>
<path d="M308.063 153.748H257.332L264.652 145.395H311.881L308.063 153.748Z" fill="white"/>
<path d="M302.334 166.278H246.352L253.671 157.924H306.153L302.334 166.278Z" fill="white"/>
<path d="M298.965 178.809H233.02L235.683 178.457L242.693 170.455H300.428L296.771 178.457L298.965 178.809Z" fill="white"/>
<path d="M330.504 210.138V208.05H182.223H163.773L169.5 216.404H360.258L407.618 210.138H330.504ZM201.002 231.022L198.138 237.288H255.874L261.363 231.022H201.002ZM191.456 251.908L188.592 258.172H237.573L243.063 251.908H191.456ZM182.223 314.562V312.474H163.773L159.954 320.828H182.223V321.34L182.672 320.828L188.163 314.562H182.223ZM154.227 333.358L150.408 341.712H164.371L171.693 333.358H154.227ZM138.954 366.773L135.183 375.023L142.412 366.773H138.954ZM149.454 343.8L145.637 352.154H155.223L162.543 343.8H149.454ZM139.908 364.685H144.242L153.392 354.242H144.681L139.908 364.685ZM159 322.916L155.181 331.27H173.522L180.841 322.916H159ZM182.223 304.12V302.03H168.546L164.727 310.384H191.824L197.312 304.12H182.223ZM182.223 293.678V291.588H173.319L169.5 299.942H200.972L206.462 293.678H182.223ZM182.223 283.234V281.146H178.092L174.273 289.5H210.123L215.614 283.234H182.223ZM182.223 272.792V272.107L179.046 279.058H219.273L224.762 272.792H182.223ZM186.683 262.35L183.819 268.616H228.423L233.913 262.35H186.683ZM196.228 241.466L193.365 247.73H246.724L252.213 241.466H196.228ZM182.223 220.58V218.492H186.683L178.092 226.846H281.331L328.692 220.58H182.223ZM415.982 197.608H330.504V195.518H182.223V193.43H122.512L150.408 203.872H454.979L415.982 197.608ZM337.97 185.076L330.504 183.878L324.972 182.988H201.439L138.295 191.342H376.976L337.97 185.076Z" fill="white"/>
</svg>
